<svg width="1920" height="1080" viewBox="0 0 1920 1080" fill="none" xmlns="http://www.w3.org/2000/svg">
<g clip-path="url(#clip0_3193_2924)">
<path d="M1920 0H0V1080H1920V0Z" fill="url(#paint0_linear_3193_2924)"/>
<path d="M1920 0H0V1080H1920V0Z" fill="url(#paint1_radial_3193_2924)"/>
<path d="M1920 0H0V1080H1920V0Z" fill="url(#paint2_radial_3193_2924)"/>
<path d="M-200 1020C229.455 870 658.909 1120 1088.36 970C1517.82 820 1839.91 920 2162 870" stroke="#37474F" stroke-opacity="0.08"/>
<path d="M-200 919.275C283.136 1020.05 766.273 818.496 1249.41 989.819C1678.86 1120.83 1947.27 969.664 2162 1020.05" stroke="#37474F" stroke-opacity="0.06"/>
</g>
<defs>
<linearGradient id="paint0_linear_3193_2924" x1="0" y1="0" x2="922.967" y2="1640.83" gradientUnits="userSpaceOnUse">
<stop stop-color="#F5F7FA"/>
<stop offset="0.5" stop-color="#E4E8EC"/>
<stop offset="1" stop-color="#DBE1E8"/>
</linearGradient>
<radialGradient id="paint1_radial_3193_2924" cx="0" cy="0" r="1" gradientUnits="userSpaceOnUse" gradientTransform="translate(576 270) scale(1152 648)">
<stop stop-color="white" stop-opacity="0.8"/>
<stop offset="1" stop-color="white" stop-opacity="0"/>
</radialGradient>
<radialGradient id="paint2_radial_3193_2924" cx="0" cy="0" r="1" gradientUnits="userSpaceOnUse" gradientTransform="translate(1440 756) scale(1056 594)">
<stop stop-color="#CFD8DC" stop-opacity="0.5"/>
<stop offset="1" stop-color="#CFD8DC" stop-opacity="0"/>
</radialGradient>
<clipPath id="clip0_3193_2924">
<rect width="1920" height="1080" fill="white"/>
</clipPath>
</defs>
</svg>
